<svg xmlns="http://www.w3.org/2000/svg" xmlns:xlink="http://www.w3.org/1999/xlink" width="600" height="400" viewBox="0 0 2400 1600">
<defs>
  <clipPath id="clip800">
    <rect x="0" y="0" width="2400" height="1600"></rect>
  </clipPath>
</defs>
<path clip-path="url(#clip800)" d="M0 1600 L2400 1600 L2400 0 L0 0  Z" fill="#ffffff" fill-rule="evenodd" fill-opacity="1"></path>
<defs>
  <clipPath id="clip801">
    <rect x="480" y="0" width="1681" height="1600"></rect>
  </clipPath>
</defs>
<path clip-path="url(#clip800)" d="M156.598 1486.45 L2352.76 1486.45 L2352.76 47.2441 L156.598 47.2441  Z" fill="#ffffff" fill-rule="evenodd" fill-opacity="1"></path>
<defs>
  <clipPath id="clip802">
    <rect x="156" y="47" width="2197" height="1440"></rect>
  </clipPath>
</defs>
<polyline clip-path="url(#clip802)" style="stroke:#000000; stroke-linecap:round; stroke-linejoin:round; stroke-width:2; stroke-opacity:0.1; fill:none" points="218.753,1486.45 218.753,47.2441 "></polyline>
<polyline clip-path="url(#clip802)" style="stroke:#000000; stroke-linecap:round; stroke-linejoin:round; stroke-width:2; stroke-opacity:0.1; fill:none" points="736.715,1486.45 736.715,47.2441 "></polyline>
<polyline clip-path="url(#clip802)" style="stroke:#000000; stroke-linecap:round; stroke-linejoin:round; stroke-width:2; stroke-opacity:0.1; fill:none" points="1254.68,1486.45 1254.68,47.2441 "></polyline>
<polyline clip-path="url(#clip802)" style="stroke:#000000; stroke-linecap:round; stroke-linejoin:round; stroke-width:2; stroke-opacity:0.1; fill:none" points="1772.64,1486.45 1772.64,47.2441 "></polyline>
<polyline clip-path="url(#clip802)" style="stroke:#000000; stroke-linecap:round; stroke-linejoin:round; stroke-width:2; stroke-opacity:0.1; fill:none" points="2290.6,1486.45 2290.6,47.2441 "></polyline>
<polyline clip-path="url(#clip800)" style="stroke:#000000; stroke-linecap:round; stroke-linejoin:round; stroke-width:4; stroke-opacity:1; fill:none" points="156.598,1486.45 2352.76,1486.45 "></polyline>
<polyline clip-path="url(#clip800)" style="stroke:#000000; stroke-linecap:round; stroke-linejoin:round; stroke-width:4; stroke-opacity:1; fill:none" points="218.753,1486.45 218.753,1467.55 "></polyline>
<polyline clip-path="url(#clip800)" style="stroke:#000000; stroke-linecap:round; stroke-linejoin:round; stroke-width:4; stroke-opacity:1; fill:none" points="736.715,1486.45 736.715,1467.55 "></polyline>
<polyline clip-path="url(#clip800)" style="stroke:#000000; stroke-linecap:round; stroke-linejoin:round; stroke-width:4; stroke-opacity:1; fill:none" points="1254.68,1486.45 1254.68,1467.55 "></polyline>
<polyline clip-path="url(#clip800)" style="stroke:#000000; stroke-linecap:round; stroke-linejoin:round; stroke-width:4; stroke-opacity:1; fill:none" points="1772.64,1486.45 1772.64,1467.55 "></polyline>
<polyline clip-path="url(#clip800)" style="stroke:#000000; stroke-linecap:round; stroke-linejoin:round; stroke-width:4; stroke-opacity:1; fill:none" points="2290.6,1486.45 2290.6,1467.55 "></polyline>
<path clip-path="url(#clip800)" d="M181.057 1517.37 Q177.446 1517.37 175.617 1520.93 Q173.812 1524.47 173.812 1531.6 Q173.812 1538.71 175.617 1542.27 Q177.446 1545.82 181.057 1545.82 Q184.691 1545.82 186.497 1542.27 Q188.325 1538.71 188.325 1531.6 Q188.325 1524.47 186.497 1520.93 Q184.691 1517.37 181.057 1517.37 M181.057 1513.66 Q186.867 1513.66 189.923 1518.27 Q193.001 1522.85 193.001 1531.6 Q193.001 1540.33 189.923 1544.94 Q186.867 1549.52 181.057 1549.52 Q175.247 1549.52 172.168 1544.94 Q169.113 1540.33 169.113 1531.6 Q169.113 1522.85 172.168 1518.27 Q175.247 1513.66 181.057 1513.66 Z" fill="#000000" fill-rule="nonzero" fill-opacity="1"></path><path clip-path="url(#clip800)" d="M201.219 1542.97 L206.103 1542.97 L206.103 1548.85 L201.219 1548.85 L201.219 1542.97 Z" fill="#000000" fill-rule="nonzero" fill-opacity="1"></path><path clip-path="url(#clip800)" d="M226.288 1517.37 Q222.677 1517.37 220.848 1520.93 Q219.043 1524.47 219.043 1531.6 Q219.043 1538.71 220.848 1542.27 Q222.677 1545.82 226.288 1545.82 Q229.922 1545.82 231.728 1542.27 Q233.557 1538.71 233.557 1531.6 Q233.557 1524.47 231.728 1520.93 Q229.922 1517.37 226.288 1517.37 M226.288 1513.66 Q232.098 1513.66 235.154 1518.27 Q238.233 1522.85 238.233 1531.6 Q238.233 1540.33 235.154 1544.94 Q232.098 1549.52 226.288 1549.52 Q220.478 1549.52 217.399 1544.94 Q214.344 1540.33 214.344 1531.6 Q214.344 1522.85 217.399 1518.27 Q220.478 1513.66 226.288 1513.66 Z" fill="#000000" fill-rule="nonzero" fill-opacity="1"></path><path clip-path="url(#clip800)" d="M256.45 1517.37 Q252.839 1517.37 251.01 1520.93 Q249.205 1524.47 249.205 1531.6 Q249.205 1538.71 251.01 1542.27 Q252.839 1545.82 256.45 1545.82 Q260.084 1545.82 261.89 1542.27 Q263.719 1538.71 263.719 1531.6 Q263.719 1524.47 261.89 1520.93 Q260.084 1517.37 256.45 1517.37 M256.45 1513.66 Q262.26 1513.66 265.316 1518.27 Q268.394 1522.85 268.394 1531.6 Q268.394 1540.33 265.316 1544.94 Q262.26 1549.52 256.45 1549.52 Q250.64 1549.52 247.561 1544.94 Q244.506 1540.33 244.506 1531.6 Q244.506 1522.85 247.561 1518.27 Q250.64 1513.66 256.45 1513.66 Z" fill="#000000" fill-rule="nonzero" fill-opacity="1"></path><path clip-path="url(#clip800)" d="M699.516 1517.37 Q695.905 1517.37 694.077 1520.93 Q692.271 1524.47 692.271 1531.6 Q692.271 1538.71 694.077 1542.27 Q695.905 1545.82 699.516 1545.82 Q703.151 1545.82 704.956 1542.27 Q706.785 1538.71 706.785 1531.6 Q706.785 1524.47 704.956 1520.93 Q703.151 1517.37 699.516 1517.37 M699.516 1513.66 Q705.327 1513.66 708.382 1518.27 Q711.461 1522.85 711.461 1531.6 Q711.461 1540.33 708.382 1544.94 Q705.327 1549.52 699.516 1549.52 Q693.706 1549.52 690.628 1544.94 Q687.572 1540.33 687.572 1531.6 Q687.572 1522.85 690.628 1518.27 Q693.706 1513.66 699.516 1513.66 Z" fill="#000000" fill-rule="nonzero" fill-opacity="1"></path><path clip-path="url(#clip800)" d="M719.678 1542.97 L724.563 1542.97 L724.563 1548.85 L719.678 1548.85 L719.678 1542.97 Z" fill="#000000" fill-rule="nonzero" fill-opacity="1"></path><path clip-path="url(#clip800)" d="M738.775 1544.91 L755.095 1544.91 L755.095 1548.85 L733.15 1548.85 L733.15 1544.91 Q735.812 1542.16 740.396 1537.53 Q745.002 1532.88 746.183 1531.53 Q748.428 1529.01 749.308 1527.27 Q750.211 1525.51 750.211 1523.82 Q750.211 1521.07 748.266 1519.33 Q746.345 1517.6 743.243 1517.6 Q741.044 1517.6 738.59 1518.36 Q736.16 1519.13 733.382 1520.68 L733.382 1515.95 Q736.206 1514.82 738.66 1514.24 Q741.113 1513.66 743.15 1513.66 Q748.521 1513.66 751.715 1516.35 Q754.91 1519.03 754.91 1523.52 Q754.91 1525.65 754.099 1527.57 Q753.312 1529.47 751.206 1532.07 Q750.627 1532.74 747.525 1535.95 Q744.424 1539.15 738.775 1544.91 Z" fill="#000000" fill-rule="nonzero" fill-opacity="1"></path><path clip-path="url(#clip800)" d="M764.956 1514.29 L783.312 1514.29 L783.312 1518.22 L769.238 1518.22 L769.238 1526.7 Q770.257 1526.35 771.275 1526.19 Q772.294 1526 773.312 1526 Q779.099 1526 782.479 1529.17 Q785.859 1532.34 785.859 1537.76 Q785.859 1543.34 782.386 1546.44 Q778.914 1549.52 772.595 1549.52 Q770.419 1549.52 768.15 1549.15 Q765.905 1548.78 763.498 1548.04 L763.498 1543.34 Q765.581 1544.47 767.803 1545.03 Q770.025 1545.58 772.502 1545.58 Q776.507 1545.58 778.845 1543.48 Q781.183 1541.37 781.183 1537.76 Q781.183 1534.15 778.845 1532.04 Q776.507 1529.94 772.502 1529.94 Q770.627 1529.94 768.752 1530.35 Q766.9 1530.77 764.956 1531.65 L764.956 1514.29 Z" fill="#000000" fill-rule="nonzero" fill-opacity="1"></path><path clip-path="url(#clip800)" d="M1216.98 1517.37 Q1213.37 1517.37 1211.54 1520.93 Q1209.74 1524.47 1209.74 1531.6 Q1209.74 1538.71 1211.54 1542.27 Q1213.37 1545.82 1216.98 1545.82 Q1220.61 1545.82 1222.42 1542.27 Q1224.25 1538.71 1224.25 1531.6 Q1224.25 1524.47 1222.42 1520.93 Q1220.61 1517.37 1216.98 1517.37 M1216.98 1513.66 Q1222.79 1513.66 1225.85 1518.27 Q1228.92 1522.85 1228.92 1531.6 Q1228.92 1540.33 1225.85 1544.94 Q1222.79 1549.52 1216.98 1549.52 Q1211.17 1549.52 1208.09 1544.94 Q1205.04 1540.33 1205.04 1531.6 Q1205.04 1522.85 1208.09 1518.27 Q1211.17 1513.66 1216.98 1513.66 Z" fill="#000000" fill-rule="nonzero" fill-opacity="1"></path><path clip-path="url(#clip800)" d="M1237.14 1542.97 L1242.03 1542.97 L1242.03 1548.85 L1237.14 1548.85 L1237.14 1542.97 Z" fill="#000000" fill-rule="nonzero" fill-opacity="1"></path><path clip-path="url(#clip800)" d="M1252.26 1514.29 L1270.61 1514.29 L1270.61 1518.22 L1256.54 1518.22 L1256.54 1526.7 Q1257.56 1526.35 1258.58 1526.19 Q1259.6 1526 1260.61 1526 Q1266.4 1526 1269.78 1529.17 Q1273.16 1532.34 1273.16 1537.76 Q1273.16 1543.34 1269.69 1546.44 Q1266.22 1549.52 1259.9 1549.52 Q1257.72 1549.52 1255.45 1549.15 Q1253.21 1548.78 1250.8 1548.04 L1250.8 1543.34 Q1252.88 1544.47 1255.11 1545.03 Q1257.33 1545.58 1259.8 1545.58 Q1263.81 1545.58 1266.15 1543.48 Q1268.48 1541.37 1268.48 1537.76 Q1268.48 1534.15 1266.15 1532.04 Q1263.81 1529.94 1259.8 1529.94 Q1257.93 1529.94 1256.05 1530.35 Q1254.2 1530.77 1252.26 1531.65 L1252.26 1514.29 Z" fill="#000000" fill-rule="nonzero" fill-opacity="1"></path><path clip-path="url(#clip800)" d="M1292.37 1517.37 Q1288.76 1517.37 1286.93 1520.93 Q1285.13 1524.47 1285.13 1531.6 Q1285.13 1538.71 1286.93 1542.27 Q1288.76 1545.82 1292.37 1545.82 Q1296.01 1545.82 1297.81 1542.27 Q1299.64 1538.71 1299.64 1531.6 Q1299.64 1524.47 1297.81 1520.93 Q1296.01 1517.37 1292.37 1517.37 M1292.37 1513.66 Q1298.18 1513.66 1301.24 1518.27 Q1304.32 1522.85 1304.32 1531.6 Q1304.32 1540.33 1301.24 1544.94 Q1298.18 1549.52 1292.37 1549.52 Q1286.56 1549.52 1283.48 1544.94 Q1280.43 1540.33 1280.43 1531.6 Q1280.43 1522.85 1283.48 1518.27 Q1286.56 1513.66 1292.37 1513.66 Z" fill="#000000" fill-rule="nonzero" fill-opacity="1"></path><path clip-path="url(#clip800)" d="M1735.44 1517.37 Q1731.83 1517.37 1730 1520.93 Q1728.19 1524.47 1728.19 1531.6 Q1728.19 1538.71 1730 1542.27 Q1731.83 1545.82 1735.44 1545.82 Q1739.07 1545.82 1740.88 1542.27 Q1742.71 1538.71 1742.71 1531.6 Q1742.71 1524.47 1740.88 1520.93 Q1739.07 1517.37 1735.44 1517.37 M1735.44 1513.66 Q1741.25 1513.66 1744.31 1518.27 Q1747.38 1522.85 1747.38 1531.6 Q1747.38 1540.33 1744.31 1544.94 Q1741.25 1549.52 1735.44 1549.52 Q1729.63 1549.52 1726.55 1544.94 Q1723.5 1540.33 1723.5 1531.6 Q1723.5 1522.85 1726.55 1518.27 Q1729.63 1513.66 1735.44 1513.66 Z" fill="#000000" fill-rule="nonzero" fill-opacity="1"></path><path clip-path="url(#clip800)" d="M1755.6 1542.97 L1760.49 1542.97 L1760.49 1548.85 L1755.6 1548.85 L1755.6 1542.97 Z" fill="#000000" fill-rule="nonzero" fill-opacity="1"></path><path clip-path="url(#clip800)" d="M1769.49 1514.29 L1791.71 1514.29 L1791.71 1516.28 L1779.17 1548.85 L1774.28 1548.85 L1786.09 1518.22 L1769.49 1518.22 L1769.49 1514.29 Z" fill="#000000" fill-rule="nonzero" fill-opacity="1"></path><path clip-path="url(#clip800)" d="M1800.88 1514.29 L1819.24 1514.29 L1819.24 1518.22 L1805.16 1518.22 L1805.16 1526.7 Q1806.18 1526.35 1807.2 1526.19 Q1808.22 1526 1809.24 1526 Q1815.02 1526 1818.4 1529.17 Q1821.78 1532.34 1821.78 1537.76 Q1821.78 1543.34 1818.31 1546.44 Q1814.84 1549.52 1808.52 1549.52 Q1806.34 1549.52 1804.07 1549.15 Q1801.83 1548.78 1799.42 1548.04 L1799.42 1543.34 Q1801.5 1544.47 1803.73 1545.03 Q1805.95 1545.58 1808.43 1545.58 Q1812.43 1545.58 1814.77 1543.48 Q1817.11 1541.37 1817.11 1537.76 Q1817.11 1534.15 1814.77 1532.04 Q1812.43 1529.94 1808.43 1529.94 Q1806.55 1529.94 1804.68 1530.35 Q1802.82 1530.77 1800.88 1531.65 L1800.88 1514.29 Z" fill="#000000" fill-rule="nonzero" fill-opacity="1"></path><path clip-path="url(#clip800)" d="M2242.67 1544.91 L2250.31 1544.91 L2250.31 1518.55 L2242 1520.21 L2242 1515.95 L2250.27 1514.29 L2254.94 1514.29 L2254.94 1544.91 L2262.58 1544.91 L2262.58 1548.85 L2242.67 1548.85 L2242.67 1544.91 Z" fill="#000000" fill-rule="nonzero" fill-opacity="1"></path><path clip-path="url(#clip800)" d="M2272.02 1542.97 L2276.91 1542.97 L2276.91 1548.85 L2272.02 1548.85 L2272.02 1542.97 Z" fill="#000000" fill-rule="nonzero" fill-opacity="1"></path><path clip-path="url(#clip800)" d="M2297.09 1517.37 Q2293.48 1517.37 2291.65 1520.93 Q2289.85 1524.47 2289.85 1531.6 Q2289.85 1538.71 2291.65 1542.27 Q2293.48 1545.82 2297.09 1545.82 Q2300.73 1545.82 2302.53 1542.27 Q2304.36 1538.71 2304.36 1531.6 Q2304.36 1524.47 2302.53 1520.93 Q2300.73 1517.37 2297.09 1517.37 M2297.09 1513.66 Q2302.9 1513.66 2305.96 1518.27 Q2309.04 1522.85 2309.04 1531.6 Q2309.04 1540.33 2305.96 1544.94 Q2302.9 1549.52 2297.09 1549.52 Q2291.28 1549.52 2288.2 1544.94 Q2285.15 1540.33 2285.15 1531.6 Q2285.15 1522.85 2288.2 1518.27 Q2291.28 1513.66 2297.09 1513.66 Z" fill="#000000" fill-rule="nonzero" fill-opacity="1"></path><path clip-path="url(#clip800)" d="M2327.26 1517.37 Q2323.64 1517.37 2321.82 1520.93 Q2320.01 1524.47 2320.01 1531.6 Q2320.01 1538.71 2321.82 1542.27 Q2323.64 1545.82 2327.26 1545.82 Q2330.89 1545.82 2332.7 1542.27 Q2334.52 1538.71 2334.52 1531.6 Q2334.52 1524.47 2332.7 1520.93 Q2330.89 1517.37 2327.26 1517.37 M2327.26 1513.66 Q2333.07 1513.66 2336.12 1518.27 Q2339.2 1522.85 2339.2 1531.6 Q2339.2 1540.33 2336.12 1544.94 Q2333.07 1549.52 2327.26 1549.52 Q2321.45 1549.52 2318.37 1544.94 Q2315.31 1540.33 2315.31 1531.6 Q2315.31 1522.85 2318.37 1518.27 Q2321.45 1513.66 2327.26 1513.66 Z" fill="#000000" fill-rule="nonzero" fill-opacity="1"></path><polyline clip-path="url(#clip802)" style="stroke:#000000; stroke-linecap:round; stroke-linejoin:round; stroke-width:2; stroke-opacity:0.1; fill:none" points="156.598,1486.45 2352.76,1486.45 "></polyline>
<polyline clip-path="url(#clip802)" style="stroke:#000000; stroke-linecap:round; stroke-linejoin:round; stroke-width:2; stroke-opacity:0.1; fill:none" points="156.598,1198.61 2352.76,1198.61 "></polyline>
<polyline clip-path="url(#clip802)" style="stroke:#000000; stroke-linecap:round; stroke-linejoin:round; stroke-width:2; stroke-opacity:0.1; fill:none" points="156.598,910.766 2352.76,910.766 "></polyline>
<polyline clip-path="url(#clip802)" style="stroke:#000000; stroke-linecap:round; stroke-linejoin:round; stroke-width:2; stroke-opacity:0.1; fill:none" points="156.598,622.926 2352.76,622.926 "></polyline>
<polyline clip-path="url(#clip802)" style="stroke:#000000; stroke-linecap:round; stroke-linejoin:round; stroke-width:2; stroke-opacity:0.1; fill:none" points="156.598,335.085 2352.76,335.085 "></polyline>
<polyline clip-path="url(#clip802)" style="stroke:#000000; stroke-linecap:round; stroke-linejoin:round; stroke-width:2; stroke-opacity:0.1; fill:none" points="156.598,47.2441 2352.76,47.2441 "></polyline>
<polyline clip-path="url(#clip800)" style="stroke:#000000; stroke-linecap:round; stroke-linejoin:round; stroke-width:4; stroke-opacity:1; fill:none" points="156.598,1486.45 156.598,47.2441 "></polyline>
<polyline clip-path="url(#clip800)" style="stroke:#000000; stroke-linecap:round; stroke-linejoin:round; stroke-width:4; stroke-opacity:1; fill:none" points="156.598,1486.45 175.496,1486.45 "></polyline>
<polyline clip-path="url(#clip800)" style="stroke:#000000; stroke-linecap:round; stroke-linejoin:round; stroke-width:4; stroke-opacity:1; fill:none" points="156.598,1198.61 175.496,1198.61 "></polyline>
<polyline clip-path="url(#clip800)" style="stroke:#000000; stroke-linecap:round; stroke-linejoin:round; stroke-width:4; stroke-opacity:1; fill:none" points="156.598,910.766 175.496,910.766 "></polyline>
<polyline clip-path="url(#clip800)" style="stroke:#000000; stroke-linecap:round; stroke-linejoin:round; stroke-width:4; stroke-opacity:1; fill:none" points="156.598,622.926 175.496,622.926 "></polyline>
<polyline clip-path="url(#clip800)" style="stroke:#000000; stroke-linecap:round; stroke-linejoin:round; stroke-width:4; stroke-opacity:1; fill:none" points="156.598,335.085 175.496,335.085 "></polyline>
<polyline clip-path="url(#clip800)" style="stroke:#000000; stroke-linecap:round; stroke-linejoin:round; stroke-width:4; stroke-opacity:1; fill:none" points="156.598,47.2441 175.496,47.2441 "></polyline>
<path clip-path="url(#clip800)" d="M63.4226 1472.25 Q59.8115 1472.25 57.9828 1475.81 Q56.1773 1479.35 56.1773 1486.48 Q56.1773 1493.59 57.9828 1497.15 Q59.8115 1500.7 63.4226 1500.7 Q67.0569 1500.7 68.8624 1497.15 Q70.6911 1493.59 70.6911 1486.48 Q70.6911 1479.35 68.8624 1475.81 Q67.0569 1472.25 63.4226 1472.25 M63.4226 1468.54 Q69.2328 1468.54 72.2883 1473.15 Q75.367 1477.73 75.367 1486.48 Q75.367 1495.21 72.2883 1499.82 Q69.2328 1504.4 63.4226 1504.4 Q57.6125 1504.4 54.5338 1499.82 Q51.4782 1495.21 51.4782 1486.48 Q51.4782 1477.73 54.5338 1473.15 Q57.6125 1468.54 63.4226 1468.54 Z" fill="#000000" fill-rule="nonzero" fill-opacity="1"></path><path clip-path="url(#clip800)" d="M83.5845 1497.85 L88.4688 1497.85 L88.4688 1503.73 L83.5845 1503.73 L83.5845 1497.85 Z" fill="#000000" fill-rule="nonzero" fill-opacity="1"></path><path clip-path="url(#clip800)" d="M108.654 1472.25 Q105.043 1472.25 103.214 1475.81 Q101.409 1479.35 101.409 1486.48 Q101.409 1493.59 103.214 1497.15 Q105.043 1500.7 108.654 1500.7 Q112.288 1500.7 114.094 1497.15 Q115.922 1493.59 115.922 1486.48 Q115.922 1479.35 114.094 1475.81 Q112.288 1472.25 108.654 1472.25 M108.654 1468.54 Q114.464 1468.54 117.52 1473.15 Q120.598 1477.73 120.598 1486.48 Q120.598 1495.21 117.52 1499.82 Q114.464 1504.4 108.654 1504.4 Q102.844 1504.4 99.765 1499.82 Q96.7095 1495.21 96.7095 1486.48 Q96.7095 1477.73 99.765 1473.15 Q102.844 1468.54 108.654 1468.54 Z" fill="#000000" fill-rule="nonzero" fill-opacity="1"></path><path clip-path="url(#clip800)" d="M65.0198 1184.41 Q61.4087 1184.41 59.58 1187.97 Q57.7745 1191.51 57.7745 1198.64 Q57.7745 1205.75 59.58 1209.31 Q61.4087 1212.85 65.0198 1212.85 Q68.6541 1212.85 70.4596 1209.31 Q72.2883 1205.75 72.2883 1198.64 Q72.2883 1191.51 70.4596 1187.97 Q68.6541 1184.41 65.0198 1184.41 M65.0198 1180.7 Q70.83 1180.7 73.8855 1185.31 Q76.9642 1189.89 76.9642 1198.64 Q76.9642 1207.37 73.8855 1211.98 Q70.83 1216.56 65.0198 1216.56 Q59.2097 1216.56 56.131 1211.98 Q53.0754 1207.37 53.0754 1198.64 Q53.0754 1189.89 56.131 1185.31 Q59.2097 1180.7 65.0198 1180.7 Z" fill="#000000" fill-rule="nonzero" fill-opacity="1"></path><path clip-path="url(#clip800)" d="M85.1818 1210.01 L90.066 1210.01 L90.066 1215.89 L85.1818 1215.89 L85.1818 1210.01 Z" fill="#000000" fill-rule="nonzero" fill-opacity="1"></path><path clip-path="url(#clip800)" d="M104.279 1211.95 L120.598 1211.95 L120.598 1215.89 L98.6539 1215.89 L98.6539 1211.95 Q101.316 1209.2 105.899 1204.57 Q110.506 1199.91 111.686 1198.57 Q113.932 1196.05 114.811 1194.31 Q115.714 1192.55 115.714 1190.86 Q115.714 1188.11 113.77 1186.37 Q111.848 1184.64 108.746 1184.64 Q106.547 1184.64 104.094 1185.4 Q101.663 1186.17 98.8854 1187.72 L98.8854 1182.99 Q101.709 1181.86 104.163 1181.28 Q106.617 1180.7 108.654 1180.7 Q114.024 1180.7 117.219 1183.39 Q120.413 1186.07 120.413 1190.56 Q120.413 1192.69 119.603 1194.61 Q118.816 1196.51 116.709 1199.1 Q116.131 1199.78 113.029 1202.99 Q109.927 1206.19 104.279 1211.95 Z" fill="#000000" fill-rule="nonzero" fill-opacity="1"></path><path clip-path="url(#clip800)" d="M62.9365 896.565 Q59.3254 896.565 57.4967 900.13 Q55.6912 903.671 55.6912 910.801 Q55.6912 917.908 57.4967 921.472 Q59.3254 925.014 62.9365 925.014 Q66.5707 925.014 68.3763 921.472 Q70.205 917.908 70.205 910.801 Q70.205 903.671 68.3763 900.13 Q66.5707 896.565 62.9365 896.565 M62.9365 892.861 Q68.7467 892.861 71.8022 897.468 Q74.8809 902.051 74.8809 910.801 Q74.8809 919.528 71.8022 924.134 Q68.7467 928.718 62.9365 928.718 Q57.1264 928.718 54.0477 924.134 Q50.9921 919.528 50.9921 910.801 Q50.9921 902.051 54.0477 897.468 Q57.1264 892.861 62.9365 892.861 Z" fill="#000000" fill-rule="nonzero" fill-opacity="1"></path><path clip-path="url(#clip800)" d="M83.0984 922.167 L87.9827 922.167 L87.9827 928.046 L83.0984 928.046 L83.0984 922.167 Z" fill="#000000" fill-rule="nonzero" fill-opacity="1"></path><path clip-path="url(#clip800)" d="M111.015 897.56 L99.2095 916.009 L111.015 916.009 L111.015 897.56 M109.788 893.486 L115.668 893.486 L115.668 916.009 L120.598 916.009 L120.598 919.898 L115.668 919.898 L115.668 928.046 L111.015 928.046 L111.015 919.898 L95.4132 919.898 L95.4132 915.384 L109.788 893.486 Z" fill="#000000" fill-rule="nonzero" fill-opacity="1"></path><path clip-path="url(#clip800)" d="M63.2606 608.724 Q59.6495 608.724 57.8208 612.289 Q56.0152 615.831 56.0152 622.96 Q56.0152 630.067 57.8208 633.632 Q59.6495 637.173 63.2606 637.173 Q66.8948 637.173 68.7004 633.632 Q70.5291 630.067 70.5291 622.96 Q70.5291 615.831 68.7004 612.289 Q66.8948 608.724 63.2606 608.724 M63.2606 605.021 Q69.0707 605.021 72.1263 609.627 Q75.205 614.21 75.205 622.96 Q75.205 631.687 72.1263 636.294 Q69.0707 640.877 63.2606 640.877 Q57.4504 640.877 54.3717 636.294 Q51.3162 631.687 51.3162 622.96 Q51.3162 614.21 54.3717 609.627 Q57.4504 605.021 63.2606 605.021 Z" fill="#000000" fill-rule="nonzero" fill-opacity="1"></path><path clip-path="url(#clip800)" d="M83.4225 634.326 L88.3067 634.326 L88.3067 640.206 L83.4225 640.206 L83.4225 634.326 Z" fill="#000000" fill-rule="nonzero" fill-opacity="1"></path><path clip-path="url(#clip800)" d="M109.071 621.062 Q105.922 621.062 104.071 623.215 Q102.242 625.368 102.242 629.118 Q102.242 632.845 104.071 635.02 Q105.922 637.173 109.071 637.173 Q112.219 637.173 114.047 635.02 Q115.899 632.845 115.899 629.118 Q115.899 625.368 114.047 623.215 Q112.219 621.062 109.071 621.062 M118.353 606.409 L118.353 610.669 Q116.594 609.835 114.788 609.396 Q113.006 608.956 111.246 608.956 Q106.617 608.956 104.163 612.081 Q101.733 615.206 101.385 621.525 Q102.751 619.511 104.811 618.446 Q106.871 617.359 109.348 617.359 Q114.557 617.359 117.566 620.53 Q120.598 623.678 120.598 629.118 Q120.598 634.442 117.45 637.659 Q114.302 640.877 109.071 640.877 Q103.075 640.877 99.9039 636.294 Q96.7326 631.687 96.7326 622.96 Q96.7326 614.766 100.621 609.905 Q104.51 605.021 111.061 605.021 Q112.82 605.021 114.603 605.368 Q116.408 605.715 118.353 606.409 Z" fill="#000000" fill-rule="nonzero" fill-opacity="1"></path><path clip-path="url(#clip800)" d="M63.5152 320.884 Q59.9041 320.884 58.0754 324.448 Q56.2699 327.99 56.2699 335.12 Q56.2699 342.226 58.0754 345.791 Q59.9041 349.332 63.5152 349.332 Q67.1494 349.332 68.955 345.791 Q70.7837 342.226 70.7837 335.12 Q70.7837 327.99 68.955 324.448 Q67.1494 320.884 63.5152 320.884 M63.5152 317.18 Q69.3254 317.18 72.3809 321.786 Q75.4596 326.37 75.4596 335.12 Q75.4596 343.846 72.3809 348.453 Q69.3254 353.036 63.5152 353.036 Q57.7051 353.036 54.6264 348.453 Q51.5708 343.846 51.5708 335.12 Q51.5708 326.37 54.6264 321.786 Q57.7051 317.18 63.5152 317.18 Z" fill="#000000" fill-rule="nonzero" fill-opacity="1"></path><path clip-path="url(#clip800)" d="M83.6771 346.485 L88.5614 346.485 L88.5614 352.365 L83.6771 352.365 L83.6771 346.485 Z" fill="#000000" fill-rule="nonzero" fill-opacity="1"></path><path clip-path="url(#clip800)" d="M108.746 335.953 Q105.413 335.953 103.492 337.735 Q101.594 339.518 101.594 342.643 Q101.594 345.768 103.492 347.55 Q105.413 349.332 108.746 349.332 Q112.08 349.332 114.001 347.55 Q115.922 345.745 115.922 342.643 Q115.922 339.518 114.001 337.735 Q112.103 335.953 108.746 335.953 M104.071 333.962 Q101.061 333.221 99.3715 331.161 Q97.7048 329.101 97.7048 326.138 Q97.7048 321.995 100.645 319.587 Q103.608 317.18 108.746 317.18 Q113.908 317.18 116.848 319.587 Q119.788 321.995 119.788 326.138 Q119.788 329.101 118.098 331.161 Q116.432 333.221 113.445 333.962 Q116.825 334.749 118.7 337.041 Q120.598 339.333 120.598 342.643 Q120.598 347.666 117.52 350.351 Q114.464 353.036 108.746 353.036 Q103.029 353.036 99.9502 350.351 Q96.8947 347.666 96.8947 342.643 Q96.8947 339.333 98.7928 337.041 Q100.691 334.749 104.071 333.962 M102.358 326.578 Q102.358 329.263 104.024 330.768 Q105.714 332.272 108.746 332.272 Q111.756 332.272 113.445 330.768 Q115.158 329.263 115.158 326.578 Q115.158 323.893 113.445 322.388 Q111.756 320.884 108.746 320.884 Q105.714 320.884 104.024 322.388 Q102.358 323.893 102.358 326.578 Z" fill="#000000" fill-rule="nonzero" fill-opacity="1"></path><path clip-path="url(#clip800)" d="M54.2328 60.5889 L61.8717 60.5889 L61.8717 34.2233 L53.5616 35.89 L53.5616 31.6308 L61.8254 29.9641 L66.5013 29.9641 L66.5013 60.5889 L74.1402 60.5889 L74.1402 64.5241 L54.2328 64.5241 L54.2328 60.5889 Z" fill="#000000" fill-rule="nonzero" fill-opacity="1"></path><path clip-path="url(#clip800)" d="M83.5845 58.6445 L88.4688 58.6445 L88.4688 64.5241 L83.5845 64.5241 L83.5845 58.6445 Z" fill="#000000" fill-rule="nonzero" fill-opacity="1"></path><path clip-path="url(#clip800)" d="M108.654 33.0428 Q105.043 33.0428 103.214 36.6076 Q101.409 40.1492 101.409 47.2788 Q101.409 54.3853 103.214 57.9501 Q105.043 61.4917 108.654 61.4917 Q112.288 61.4917 114.094 57.9501 Q115.922 54.3853 115.922 47.2788 Q115.922 40.1492 114.094 36.6076 Q112.288 33.0428 108.654 33.0428 M108.654 29.3391 Q114.464 29.3391 117.52 33.9456 Q120.598 38.5289 120.598 47.2788 Q120.598 56.0056 117.52 60.6121 Q114.464 65.1954 108.654 65.1954 Q102.844 65.1954 99.765 60.6121 Q96.7095 56.0056 96.7095 47.2788 Q96.7095 38.5289 99.765 33.9456 Q102.844 29.3391 108.654 29.3391 Z" fill="#000000" fill-rule="nonzero" fill-opacity="1"></path><polyline clip-path="url(#clip802)" style="stroke:#009af9; stroke-linecap:round; stroke-linejoin:round; stroke-width:4; stroke-opacity:1; fill:none" points="239.472,1391.16 260.19,1326.57 280.909,1267.92 301.627,1213.52 322.346,1162.02 343.064,1112.76 363.783,1065.32 384.501,1019.44 405.22,974.918 425.938,931.644 446.657,889.523 467.375,848.491 488.094,808.5 508.812,769.519 529.531,731.523 550.249,694.498 570.967,658.434 591.686,623.327 612.404,589.174 633.123,555.979 653.841,523.745 674.56,492.479 695.278,462.186 715.997,432.877 736.715,404.559 757.434,377.243 778.152,350.939 798.871,325.658 819.589,301.409 840.308,278.205 861.026,256.055 881.745,234.971 902.463,214.961 923.182,196.037 943.9,178.208 964.618,161.483 985.337,145.871 1006.06,131.38 1026.77,118.019 1047.49,105.794 1068.21,94.7121 1088.93,84.7801 1109.65,76.0032 1130.37,68.3864 1151.08,61.934 1171.8,56.6497 1192.52,52.5365 1213.24,49.5969 1233.96,47.8324 1254.68,47.2441 1275.4,47.8324 1296.11,49.5969 1316.83,52.5365 1337.55,56.6497 1358.27,61.934 1378.99,68.3864 1399.71,76.0032 1420.42,84.7801 1441.14,94.7121 1461.86,105.794 1482.58,118.019 1503.3,131.38 1524.02,145.871 1544.74,161.483 1565.45,178.208 1586.17,196.037 1606.89,214.961 1627.61,234.971 1648.33,256.055 1669.05,278.205 1689.76,301.409 1710.48,325.658 1731.2,350.939 1751.92,377.243 1772.64,404.559 1793.36,432.877 1814.08,462.186 1834.79,492.479 1855.51,523.745 1876.23,555.979 1896.95,589.174 1917.67,623.327 1938.39,658.434 1959.11,694.498 1979.82,731.523 2000.54,769.519 2021.26,808.5 2041.98,848.491 2062.7,889.523 2083.42,931.644 2104.13,974.918 2124.85,1019.44 2145.57,1065.32 2166.29,1112.76 2187.01,1162.02 2207.73,1213.52 2228.45,1267.92 2249.16,1326.57 2269.88,1391.16 "></polyline>
<polyline clip-path="url(#clip802)" style="stroke:#e26f46; stroke-linecap:round; stroke-linejoin:round; stroke-width:4; stroke-opacity:1; fill:none" points="224.377,1450.72 232.925,1415.31 243.086,1379.17 254.463,1342.75 266.837,1306.06 280.069,1269.1 294.06,1231.9 308.735,1194.49 324.036,1156.89 339.916,1119.12 356.334,1081.22 373.259,1043.23 390.66,1005.18 408.514,967.108 426.798,929.063 445.493,891.087 464.582,853.226 484.05,815.529 503.881,778.047 524.063,740.832 544.585,703.937 565.435,667.419 586.604,631.333 608.082,595.738 629.86,560.694 651.931,526.261 674.286,492.501 696.919,459.475 719.823,427.247 742.993,395.881 766.421,365.441 790.102,335.992 814.031,307.598 838.204,280.324 862.614,254.235 887.258,229.395 912.131,205.87 937.23,183.722 962.55,163.016 988.086,143.812 1013.84,126.172 1039.8,110.157 1065.97,95.8253 1092.34,83.2345 1118.91,72.4403 1145.68,63.4968 1172.64,56.4564 1199.8,51.3691 1227.14,48.2828 1254.68,47.2441 1282.21,48.2828 1309.55,51.3691 1336.71,56.4564 1363.68,63.4968 1390.44,72.4403 1417.02,83.2345 1443.39,95.8253 1469.56,110.157 1495.52,126.172 1521.27,143.812 1546.8,163.016 1572.12,183.722 1597.22,205.87 1622.1,229.395 1646.74,254.235 1671.15,280.324 1695.32,307.598 1719.25,335.992 1742.93,365.441 1766.36,395.881 1789.53,427.247 1812.43,459.475 1835.07,492.501 1857.42,526.261 1879.49,560.694 1901.27,595.738 1922.75,631.333 1943.92,667.419 1964.77,703.937 1985.29,740.832 2005.47,778.047 2025.3,815.529 2044.77,853.226 2063.86,891.087 2082.56,929.063 2100.84,967.108 2118.69,1005.18 2136.1,1043.23 2153.02,1081.22 2169.44,1119.12 2185.32,1156.89 2200.62,1194.49 2215.29,1231.9 2229.29,1269.1 2242.52,1306.06 2254.89,1342.75 2266.27,1379.17 2276.43,1415.31 2284.98,1450.72 "></polyline>
<polyline clip-path="url(#clip802)" style="stroke:#3da44d; stroke-linecap:round; stroke-linejoin:round; stroke-width:4; stroke-opacity:1; fill:none" points="218.784,1485.71 218.947,1483.56 219.325,1480 219.984,1475.01 220.985,1468.6 222.383,1460.75 224.228,1451.46 226.569,1440.72 229.454,1428.53 232.925,1414.86 237.026,1399.72 241.797,1383.08 247.281,1364.93 253.514,1345.25 260.535,1324.02 268.382,1301.24 277.09,1276.88 286.695,1250.93 297.232,1223.37 308.735,1194.2 321.238,1163.41 334.774,1130.99 349.375,1096.95 365.074,1061.31 381.901,1024.07 399.889,985.281 419.067,944.971 439.467,903.198 461.118,860.033 484.05,815.565 508.291,769.902 533.872,723.177 560.821,675.543 589.165,627.186 618.934,578.318 650.154,529.185 682.854,480.07 717.061,431.291 752.801,383.207 790.102,336.22 828.99,290.775 869.491,247.365 911.632,206.526 955.438,168.842 1000.94,134.944 1048.15,105.506 1097.11,81.2447 1147.83,62.9149 1200.34,51.3045 1254.68,47.2441 1309.01,51.3045 1361.53,62.9149 1412.25,81.2447 1461.2,105.506 1508.42,134.944 1553.92,168.842 1597.72,206.526 1639.86,247.365 1680.36,290.775 1719.25,336.22 1756.55,383.207 1792.29,431.291 1826.5,480.07 1859.2,529.185 1890.42,578.318 1920.19,627.186 1948.53,675.543 1975.48,723.177 2001.06,769.902 2025.3,815.565 2048.24,860.033 2069.89,903.198 2090.29,944.971 2109.47,985.281 2127.45,1024.07 2144.28,1061.31 2159.98,1096.95 2174.58,1130.99 2188.12,1163.41 2200.62,1194.2 2212.12,1223.37 2222.66,1250.93 2232.26,1276.88 2240.97,1301.24 2248.82,1324.02 2255.84,1345.25 2262.07,1364.93 2267.56,1383.08 2272.33,1399.72 2276.43,1414.86 2279.9,1428.53 2282.78,1440.72 2285.13,1451.46 2286.97,1460.75 2288.37,1468.6 2289.37,1475.01 2290.03,1480 2290.41,1483.56 2290.57,1485.71 "></polyline>
<polyline clip-path="url(#clip802)" style="stroke:#c271d2; stroke-linecap:round; stroke-linejoin:round; stroke-width:4; stroke-opacity:1; fill:none" points="218.754,1485.78 218.762,1484.05 218.791,1481.2 218.86,1477.2 218.993,1472.07 219.218,1465.8 219.567,1458.38 220.075,1449.81 220.782,1440.08 221.729,1429.17 222.962,1417.08 224.528,1403.78 226.48,1389.26 228.869,1373.49 231.754,1356.45 235.192,1338.11 239.247,1318.43 243.981,1297.37 249.463,1274.89 255.76,1250.96 262.944,1225.51 271.088,1198.52 280.27,1169.92 290.567,1139.66 302.059,1107.71 314.829,1074.01 328.962,1038.53 344.544,1001.23 361.665,962.079 380.414,921.073 400.886,878.213 423.175,833.521 447.379,787.045 473.594,738.864 501.924,689.091 532.47,637.886 565.336,585.457 600.63,532.077 638.459,478.087 678.933,423.91 722.165,370.062 768.269,317.165 817.358,265.957 869.552,217.31 924.968,172.236 983.728,131.903 1045.95,97.6426 1111.77,70.9593 1181.3,53.524 1254.68,47.2441 1328.05,53.524 1397.58,70.9593 1463.4,97.6426 1525.63,131.903 1584.39,172.236 1639.8,217.31 1692,265.957 1741.09,317.165 1787.19,370.062 1830.42,423.91 1870.9,478.087 1908.72,532.077 1944.02,585.457 1976.88,637.886 2007.43,689.091 2035.76,738.864 2061.98,787.045 2086.18,833.521 2108.47,878.213 2128.94,921.073 2147.69,962.079 2164.81,1001.23 2180.39,1038.53 2194.53,1074.01 2207.3,1107.71 2218.79,1139.66 2229.08,1169.92 2238.27,1198.52 2246.41,1225.51 2253.59,1250.96 2259.89,1274.89 2265.37,1297.37 2270.11,1318.43 2274.16,1338.11 2277.6,1356.45 2280.49,1373.49 2282.87,1389.26 2284.83,1403.78 2286.39,1417.08 2287.62,1429.17 2288.57,1440.08 2289.28,1449.81 2289.79,1458.38 2290.14,1465.8 2290.36,1472.07 2290.49,1477.2 2290.56,1481.2 2290.59,1484.05 2290.6,1485.78 "></polyline>
<polyline clip-path="url(#clip802)" style="stroke:#ac8d18; stroke-linecap:round; stroke-linejoin:round; stroke-width:4; stroke-opacity:1; fill:none" points="219.028,1485.58 219.935,1482.99 221.527,1478.67 223.836,1472.62 226.883,1464.84 230.687,1455.33 235.262,1444.09 240.621,1431.11 246.774,1416.39 253.733,1399.94 261.505,1381.76 270.1,1361.84 279.524,1340.19 289.785,1316.82 300.889,1291.73 312.842,1264.95 325.651,1236.48 339.32,1206.36 353.855,1174.6 369.261,1141.24 385.543,1106.32 402.704,1069.88 420.75,1032 439.684,992.729 459.511,952.15 480.234,910.35 501.858,867.433 524.384,823.511 547.818,778.716 572.163,733.191 597.421,687.096 623.595,640.608 650.69,593.923 678.708,547.253 707.652,500.83 737.524,454.903 768.327,409.744 800.065,365.64 832.739,322.9 866.353,281.851 900.909,242.837 936.408,206.221 972.855,172.379 1010.25,141.703 1048.6,114.598 1087.9,91.475 1128.15,72.7552 1169.37,58.8616 1211.54,50.2177 1254.68,47.2441 1297.81,50.2177 1339.99,58.8616 1381.2,72.7552 1421.46,91.475 1460.76,114.598 1499.1,141.703 1536.5,172.379 1572.95,206.221 1608.45,242.837 1643,281.851 1676.61,322.9 1709.29,365.64 1741.03,409.744 1771.83,454.903 1801.7,500.83 1830.65,547.253 1858.66,593.923 1885.76,640.608 1911.93,687.096 1937.19,733.191 1961.54,778.716 1984.97,823.511 2007.5,867.433 2029.12,910.35 2049.84,952.15 2069.67,992.729 2088.6,1032 2106.65,1069.88 2123.81,1106.32 2140.09,1141.24 2155.5,1174.6 2170.03,1206.36 2183.7,1236.48 2196.51,1264.95 2208.47,1291.73 2219.57,1316.82 2229.83,1340.19 2239.25,1361.84 2247.85,1381.76 2255.62,1399.94 2262.58,1416.39 2268.73,1431.11 2274.09,1444.09 2278.67,1455.33 2282.47,1464.84 2285.52,1472.62 2287.83,1478.67 2289.42,1482.99 2290.33,1485.58 "></polyline>
<polyline clip-path="url(#clip802)" style="stroke:#00a9ad; stroke-linecap:round; stroke-linejoin:round; stroke-width:4; stroke-opacity:1; fill:none" points="218.754,1485.79 218.756,1484.15 218.768,1481.46 218.8,1477.69 218.867,1472.85 218.987,1466.93 219.184,1459.93 219.483,1451.84 219.917,1442.66 220.52,1432.37 221.33,1420.97 222.39,1408.44 223.747,1394.76 225.45,1379.9 227.554,1363.85 230.117,1346.56 233.201,1328.01 236.871,1308.15 241.198,1286.94 246.253,1264.34 252.115,1240.29 258.864,1214.74 266.585,1187.63 275.367,1158.9 285.301,1128.49 296.483,1096.33 309.015,1062.38 322.998,1026.56 338.54,988.833 355.753,949.157 374.751,907.502 395.652,863.855 418.579,818.228 443.657,770.658 471.017,721.217 500.792,670.022 533.118,617.242 568.137,563.108 605.993,507.93 646.834,452.106 690.813,396.142 738.084,340.666 788.807,286.451 843.145,234.434 901.265,185.739 963.337,141.7 1029.53,103.88 1100.04,74.0966 1175.02,54.4129 1254.68,47.2441 1334.33,54.4129 1409.32,74.0966 1479.82,103.88 1546.02,141.7 1608.09,185.739 1666.21,234.434 1720.55,286.451 1771.27,340.666 1818.54,396.142 1862.52,452.106 1903.36,507.93 1941.22,563.108 1976.24,617.242 2008.56,670.022 2038.34,721.217 2065.7,770.658 2090.78,818.228 2113.7,863.855 2134.6,907.502 2153.6,949.157 2170.81,988.833 2186.36,1026.56 2200.34,1062.38 2212.87,1096.33 2224.05,1128.49 2233.99,1158.9 2242.77,1187.63 2250.49,1214.74 2257.24,1240.29 2263.1,1264.34 2268.16,1286.94 2272.48,1308.15 2276.15,1328.01 2279.24,1346.56 2281.8,1363.85 2283.9,1379.9 2285.61,1394.76 2286.96,1408.44 2288.02,1420.97 2288.83,1432.37 2289.44,1442.66 2289.87,1451.84 2290.17,1459.93 2290.37,1466.93 2290.49,1472.85 2290.55,1477.69 2290.59,1481.46 2290.6,1484.15 2290.6,1485.79 "></polyline>
<polyline clip-path="url(#clip802)" style="stroke:#ed5d92; stroke-linecap:round; stroke-linejoin:round; stroke-width:4; stroke-opacity:1; fill:none" points="218.754,1485.79 218.756,1484.17 218.767,1481.49 218.796,1477.74 218.857,1472.93 218.968,1467.05 219.152,1460.1 219.433,1452.06 219.842,1442.94 220.412,1432.73 221.182,1421.4 222.192,1408.96 223.49,1395.37 225.124,1380.61 227.148,1364.66 229.621,1347.49 232.603,1329.07 236.16,1309.34 240.362,1288.28 245.283,1265.83 250.999,1241.94 257.594,1216.55 265.151,1189.61 273.761,1161.06 283.517,1130.82 294.516,1098.85 306.86,1065.07 320.655,1029.43 336.009,991.876 353.037,952.363 371.854,910.858 392.584,867.346 415.35,821.833 440.282,774.351 467.514,724.968 497.183,673.795 529.429,620.996 564.398,566.797 602.239,511.502 643.106,455.507 687.154,399.313 734.546,343.548 785.446,288.988 840.024,236.574 898.452,187.444 960.907,142.949 1027.57,104.684 1098.63,74.5048 1174.26,54.5297 1254.68,47.2441 1335.09,54.5297 1410.73,74.5048 1481.78,104.684 1548.45,142.949 1610.9,187.444 1669.33,236.574 1723.91,288.988 1774.81,343.548 1822.2,399.313 1866.25,455.507 1907.11,511.502 1944.96,566.797 1979.93,620.996 2012.17,673.795 2041.84,724.968 2069.07,774.351 2094,821.833 2116.77,867.346 2137.5,910.858 2156.32,952.363 2173.34,991.876 2188.7,1029.43 2202.49,1065.07 2214.84,1098.85 2225.84,1130.82 2235.59,1161.06 2244.2,1189.61 2251.76,1216.55 2258.35,1241.94 2264.07,1265.83 2268.99,1288.28 2273.19,1309.34 2276.75,1329.07 2279.73,1347.49 2282.21,1364.66 2284.23,1380.61 2285.86,1395.37 2287.16,1408.96 2288.17,1421.4 2288.94,1432.73 2289.51,1442.94 2289.92,1452.06 2290.2,1460.1 2290.39,1467.05 2290.5,1472.93 2290.56,1477.74 2290.59,1481.49 2290.6,1484.17 2290.6,1485.79 "></polyline>
<polyline clip-path="url(#clip802)" style="stroke:#c68125; stroke-linecap:round; stroke-linejoin:round; stroke-width:4; stroke-opacity:1; fill:none" points="219.168,1485.54 220.41,1482.83 222.482,1478.31 225.382,1471.98 229.11,1463.85 233.668,1453.91 239.054,1442.16 245.268,1428.6 252.312,1413.25 260.184,1396.1 268.885,1377.16 278.414,1356.44 288.772,1333.95 299.96,1309.7 311.975,1283.71 324.82,1256 338.493,1226.6 352.995,1195.55 368.326,1162.87 384.486,1128.61 401.475,1092.83 419.292,1055.58 437.938,1016.93 457.413,976.974 477.716,935.787 498.849,893.472 520.81,850.143 543.6,805.925 567.219,760.957 591.667,715.391 616.943,669.394 643.049,623.149 669.983,576.854 697.746,530.722 726.338,484.983 755.759,439.883 786.008,395.685 817.087,352.666 848.994,311.118 881.73,271.351 915.295,233.686 949.688,198.457 984.911,166.01 1020.96,136.7 1057.84,110.89 1095.55,88.9471 1134.09,71.2432 1173.46,58.1482 1213.65,50.0287 1254.68,47.2441 1295.7,50.0287 1335.9,58.1482 1375.26,71.2432 1413.8,88.9471 1451.51,110.89 1488.39,136.7 1524.44,166.01 1559.67,198.457 1594.06,233.686 1627.62,271.351 1660.36,311.118 1692.27,352.666 1723.35,395.685 1753.6,439.883 1783.02,484.983 1811.61,530.722 1839.37,576.854 1866.31,623.149 1892.41,669.394 1917.69,715.391 1942.13,760.957 1965.75,805.925 1988.54,850.143 2010.51,893.472 2031.64,935.787 2051.94,976.974 2071.42,1016.93 2090.06,1055.58 2107.88,1092.83 2124.87,1128.61 2141.03,1162.87 2156.36,1195.55 2170.86,1226.6 2184.53,1256 2197.38,1283.71 2209.39,1309.7 2220.58,1333.95 2230.94,1356.44 2240.47,1377.16 2249.17,1396.1 2257.04,1413.25 2264.09,1428.6 2270.3,1442.16 2275.69,1453.91 2280.24,1463.85 2283.97,1471.98 2286.87,1478.31 2288.94,1482.83 2290.19,1485.54 "></polyline>
</svg>